<svg width="126" height="126" viewBox="0 0 126 126" fill="none" xmlns="http://www.w3.org/2000/svg">
<path d="M91.248 75.852H95.364V97.86C92.788 100.324 89.652 102.2 85.956 103.488C82.316 104.776 78.452 105.42 74.364 105.42C68.54 105.42 63.276 104.132 58.572 101.556C53.924 98.98 50.256 95.424 47.568 90.888C44.936 86.352 43.62 81.256 43.62 75.6C43.62 69.944 44.936 64.848 47.568 60.312C50.256 55.776 53.924 52.22 58.572 49.644C63.276 47.068 68.568 45.78 74.448 45.78C78.76 45.78 82.708 46.48 86.292 47.88C89.932 49.224 93.04 51.212 95.616 53.844L92.928 56.7C90.464 54.236 87.692 52.472 84.612 51.408C81.588 50.288 78.228 49.728 74.532 49.728C69.492 49.728 64.928 50.848 60.84 53.088C56.808 55.328 53.644 58.436 51.348 62.412C49.052 66.332 47.904 70.728 47.904 75.6C47.904 80.416 49.052 84.812 51.348 88.788C53.7 92.708 56.892 95.816 60.924 98.112C64.956 100.352 69.492 101.472 74.532 101.472C81.252 101.472 86.824 99.68 91.248 96.096V75.852Z" fill="#F4511E"/>
<path d="M39.64 22.2H43.924L32.92 77.136H66.772L65.932 81H27.88L39.64 22.2Z" fill="#3949AB"/>
</svg>
