<svg xmlns="http://www.w3.org/2000/svg" xmlns:xlink="http://www.w3.org/1999/xlink" viewBox="0 0 85.04 85.04"><defs><style>.cls-1{fill:url(#linear-gradient);}.cls-2,.cls-4{fill:#fff;}.cls-3{fill:none;stroke-linejoin:round;stroke-width:2px;}.cls-3,.cls-4{stroke:#fff;stroke-linecap:round;}.cls-4{stroke-linejoin:bevel;stroke-width:0.5px;}</style><linearGradient id="linear-gradient" x1="23.86" y1="71.01" x2="62.47" y2="12.06" gradientUnits="userSpaceOnUse"><stop offset="0" stop-color="#254d5a"/><stop offset="1" stop-color="#43988e"/></linearGradient></defs><title>watch 6</title><g id="Layer_4" data-name="Layer 4"><rect class="cls-1" width="85.04" height="85.04" rx="14.17" ry="14.17"/><path class="cls-2" d="M64.85,35.59c-.28-.65-1.38-.54-2-.54-2.41,0-4.81,0-7.22,0A1.72,1.72,0,0,0,54,36.12c-.23.47-.41,1-.61,1.45l-1.32,3.2-4,9.76a2.56,2.56,0,0,0-.27,1.09,1.35,1.35,0,0,0,2.12.88,2.88,2.88,0,0,0,.61-1l.6-1.33,1.16-2.62,2.15-4.82,1.08-2.41L56,39.11a7.06,7.06,0,0,1,.52-1.16H61.4L51.59,61.28a41.61,41.61,0,0,1-6.42-9.5,1.43,1.43,0,0,1-.2-.67.87.87,0,0,1,0-.21c.56-1.16,1.08-2.33,1.54-3.54C47.88,43.9,49,39.92,48.26,38c-.18-.47-.73-.6-1.28-.64a3.17,3.17,0,0,0-.77-.07l-2.9,0-2.9,0a3.17,3.17,0,0,0-.77.07c-.55,0-1.09.17-1.28.64-.76,1.94.38,5.92,1.7,9.38.46,1.2,1,2.38,1.54,3.54a.87.87,0,0,1,0,.21,1.43,1.43,0,0,1-.2.67,41.61,41.61,0,0,1-6.42,9.5L25.24,37.94H30.1a7.05,7.05,0,0,1,.52,1.16l.54,1.21,1.08,2.41,2.15,4.82,1.16,2.62.6,1.33a2.88,2.88,0,0,0,.61,1,1.35,1.35,0,0,0,2.12-.88,2.56,2.56,0,0,0-.27-1.09l-4-9.76-1.32-3.2c-.2-.48-.38-1-.61-1.45A1.53,1.53,0,0,0,31,35.06c-2.4,0-4.81,0-7.22,0-.59,0-1.69-.11-2,.54a2.2,2.2,0,0,0,.09,1.71c.22.58.42,1.15.66,1.72L23,40.24l1,2.43,2.05,4.87,4.11,9.73,2.7,6.39a2.26,2.26,0,0,0,.71,1.06,1.52,1.52,0,0,0,1.51,0,4.28,4.28,0,0,0,1.19-1,57.19,57.19,0,0,0,7-9.58,57.19,57.19,0,0,0,7,9.58,4.28,4.28,0,0,0,1.19,1,1.52,1.52,0,0,0,1.51,0,2.26,2.26,0,0,0,.71-1.06l2.7-6.39,4.11-9.73,2.05-4.87,1-2.43L64.1,39c.24-.57.45-1.14.66-1.72A2.2,2.2,0,0,0,64.85,35.59ZM41.2,40h4.24a15.06,15.06,0,0,1-2.12,7.71A15.06,15.06,0,0,1,41.2,40Z"/><polyline class="cls-3" points="65.74 31.11 65.74 27.28 70.44 27.28 70.44 39.86 65.74 39.86 65.74 36.56"/><polyline class="cls-3" points="21.06 31.09 21.06 27.28 16.36 27.28 16.36 39.86 21.06 39.86 21.06 36.56"/><path class="cls-2" d="M22.12,35c-2.25,0-2.07,1.8-2.07,1.8l5.32-1.73Z"/><path class="cls-2" d="M65.3,35c1.65-.06,1.46,1.63,1.46,1.63l-4.69-1.63Z"/><path class="cls-2" d="M66.77,31.8s0-.91,0-.94c0-.29,0-.28-1.53-.28H22.15c-1,0-1.81.08-1.81.71,0,.34-.3-.17-.3-.17s0,1.7,2.11,1.74h43.4c1.27,0,1.22-1,1.22-1Z"/><rect class="cls-4" x="73.95" y="27.75" width="1.18" height="11.75"/><rect class="cls-4" x="11.71" y="27.75" width="1.18" height="11.75"/><rect class="cls-4" x="77.44" y="31.09" width="1.18" height="4.55"/><rect class="cls-4" x="8.23" y="31.09" width="1.18" height="4.55"/></g></svg>